<svg xmlns="http://www.w3.org/2000/svg" width="1200" height="630" viewBox="0 0 1200 630">
  <defs>
    <linearGradient id="bg" x1="0%" y1="0%" x2="100%" y2="100%">
      <stop offset="0%" style="stop-color:#1B3C3C"/>
      <stop offset="100%" style="stop-color:#2A5252"/>
    </linearGradient>
    <radialGradient id="glow" cx="50%" cy="45%" r="40%">
      <stop offset="0%" style="stop-color:#D4A832;stop-opacity:0.08"/>
      <stop offset="100%" style="stop-color:#D4A832;stop-opacity:0"/>
    </radialGradient>
  </defs>

  <!-- Background -->
  <rect width="1200" height="630" fill="url(#bg)"/>
  <rect width="1200" height="630" fill="url(#glow)"/>

  <!-- Decorative star accents -->
  <text x="120" y="140" font-size="24" fill="#D4A832" opacity="0.15" font-family="serif">&#10022;</text>
  <text x="1060" y="500" font-size="18" fill="#D4A832" opacity="0.2" font-family="serif">&#10022;</text>
  <text x="180" y="520" font-size="14" fill="#D4A832" opacity="0.1" font-family="serif">&#10022;</text>

  <!-- Palm tree icon -->
  <g transform="translate(470, 175) scale(1.8)" fill="#6B9A9A">
    <path d="M18 2C15.5 4.5 14 8 14 12L16 12C16.5 8 18 5 20 3L18 2Z"/>
    <path d="M22 2C24.5 4.5 26 8 26 12L24 12C23.5 8 22 5 20 3L22 2Z"/>
    <path d="M12 6C10 7 8.5 9 8 12L10 12.5C10.5 10 12 8 14 7L12 6Z"/>
    <path d="M28 6C30 7 31.5 9 32 12L30 12.5C29.5 10 28 8 26 7L28 6Z"/>
    <path d="M19 10L19 28L21 28L21 10Z"/>
  </g>

  <!-- LAMMA text -->
  <text x="600" y="290" text-anchor="middle" font-family="Georgia, 'Playfair Display', serif" font-size="72" font-weight="700" fill="#F5F0E5" letter-spacing="4">
    LAMMA
  </text>

  <!-- + symbol -->
  <text x="808" y="272" font-family="Georgia, serif" font-size="48" font-weight="700" fill="#D4A832">
    +
  </text>

  <!-- Divider line -->
  <line x1="480" y1="320" x2="720" y2="320" stroke="#D4A832" stroke-width="1" opacity="0.3"/>

  <!-- Tagline -->
  <text x="600" y="370" text-anchor="middle" font-family="'DM Sans', Helvetica, Arial, sans-serif" font-size="22" fill="#B5AD82" letter-spacing="1">
    Discover the voices shaping the ummah
  </text>

  <!-- Sub-tagline -->
  <text x="600" y="415" text-anchor="middle" font-family="'DM Sans', Helvetica, Arial, sans-serif" font-size="16" fill="#7A8A7E" letter-spacing="0.5">
    Islamic scholars, educators &amp; creators — across every platform
  </text>

  <!-- Stats bar -->
  <text x="390" y="490" text-anchor="middle" font-family="Georgia, serif" font-size="28" font-weight="700" fill="#D4A832">581+</text>
  <text x="390" y="512" text-anchor="middle" font-family="'DM Sans', sans-serif" font-size="12" fill="#6B9A9A">Creators</text>

  <text x="600" y="490" text-anchor="middle" font-family="Georgia, serif" font-size="28" font-weight="700" fill="#D4A832">14</text>
  <text x="600" y="512" text-anchor="middle" font-family="'DM Sans', sans-serif" font-size="12" fill="#6B9A9A">Platforms</text>

  <text x="810" y="490" text-anchor="middle" font-family="Georgia, serif" font-size="28" font-weight="700" fill="#D4A832">40+</text>
  <text x="810" y="512" text-anchor="middle" font-family="'DM Sans', sans-serif" font-size="12" fill="#6B9A9A">Countries</text>

  <!-- Bottom border accent -->
  <rect x="0" y="625" width="1200" height="5" fill="#D4A832" opacity="0.6"/>
</svg>
